<?xml version="1.0" encoding="UTF-8"?>
<svg width="14px" height="14px" viewBox="0 0 14 14" version="1.1" xmlns="http://www.w3.org/2000/svg" xmlns:xlink="http://www.w3.org/1999/xlink">
    <g stroke="none" stroke-width="1" fill="none" fill-rule="evenodd">
        <g transform="translate(-1119.000000, -60.000000)" fill="#000000">
            <g transform="translate(0.000000, 48.000000)">
                <path d="M1126,26 C1122.13401,26 1119,22.8659932 1119,19 C1119,15.1340068 1122.13401,12 1126,12 C1129.86599,12 1133,15.1340068 1133,19 C1133,22.8659932 1129.86599,26 1126,26 Z M1125.0111,20.9153226 L1126.71587,20.9153226 L1126.74251,20.5053763 C1126.79134,20.066306 1126.98446,19.6832454 1127.32186,19.3561828 L1127.86127,18.8387097 C1128.28302,18.4265212 1128.57825,18.051301 1128.74695,17.7130376 C1128.91565,17.3747743 1129,17.0152349 1129,16.6344086 C1129,15.7965908 1128.74029,15.1480758 1128.22087,14.6888441 C1127.70144,14.2296124 1126.97115,14 1126.02997,14 C1125.09766,14 1124.36182,14.2419331 1123.82242,14.7258065 C1123.28302,15.2096798 1123.00888,15.879476 1123,16.7352151 L1124.93119,16.7352151 C1124.94007,16.3767903 1125.04328,16.0956551 1125.24084,15.8918011 C1125.4384,15.687947 1125.70144,15.5860215 1126.02997,15.5860215 C1126.72253,15.5860215 1127.06881,15.9646019 1127.06881,16.7217742 C1127.06881,16.9726715 1127.00222,17.2112444 1126.86903,17.4375 C1126.73585,17.6637556 1126.46837,17.9572115 1126.06659,18.3178763 C1125.66481,18.6785412 1125.38846,19.044801 1125.23751,19.4166667 C1125.08657,19.7885323 1125.0111,20.2880793 1125.0111,20.9153226 Z M1124.81798,22.9784946 C1124.81798,23.274195 1124.91676,23.5183682 1125.11432,23.7110215 C1125.31188,23.9036748 1125.5727,24 1125.89678,24 C1126.22087,24 1126.48169,23.9036748 1126.67925,23.7110215 C1126.8768,23.5183682 1126.97558,23.274195 1126.97558,22.9784946 C1126.97558,22.6783139 1126.87458,22.4307805 1126.67259,22.2358871 C1126.47059,22.0409936 1126.21199,21.9435484 1125.89678,21.9435484 C1125.58157,21.9435484 1125.32298,22.0409936 1125.12098,22.2358871 C1124.91898,22.4307805 1124.81798,22.6783139 1124.81798,22.9784946 Z"></path>
            </g>
        </g>
    </g>
</svg>