<?xml version="1.0" encoding="UTF-8"?>
<svg width="72px" height="16px" viewBox="0 0 72 16" version="1.1" xmlns="http://www.w3.org/2000/svg" xmlns:xlink="http://www.w3.org/1999/xlink">
    <defs></defs>
    <g id="Page-1" stroke="none" stroke-width="1" fill="none" fill-rule="evenodd">
        <g id="TT-Add-Exchange" transform="translate(-16.000000, -16.000000)" fill="#000000">
            <g id="Header">
                <g id="Group-8" transform="translate(16.000000, 16.000000)">
                    <path d="M25,8 L25,16 L17,16 L17,8 L17,0 L32,0 L32,8 L25,8 Z M15,8 L15,16 L7,16 L7,8 L0,8 L0,0 L15,0 L15,8 Z" id="Combined-Shape"></path>
                    <path d="M39.1893998,1.26315789 L39.1893998,6.53099415 L37.7677319,6.53099415 L37.7677319,1.26315789 L36,1.26315789 L36,0 L40.9571317,0 L40.9571317,1.26315789 L39.1893998,1.26315789 Z M43.3515199,6.53099415 L41.9298519,6.53099415 L41.9298519,0 L45.025721,0 C45.325021,0 45.5962576,0.0499020351 45.8394388,0.149707602 C46.0826201,0.24951317 46.2899446,0.391422082 46.4614186,0.575438596 C46.6328925,0.759455111 46.7653931,0.979335953 46.8589244,1.23508772 C46.9524557,1.49083949 46.9992206,1.77465731 46.9992206,2.08654971 C46.9992206,2.52943691 46.9010142,2.91617768 46.7045986,3.24678363 C46.508183,3.57738957 46.2104463,3.81754311 45.8113796,3.96725146 L47.0927514,6.53099415 L45.5120811,6.53099415 L44.3710055,4.13567251 L43.3515199,4.13567251 L43.3515199,6.53099415 Z M44.8480125,2.9380117 C45.0600166,2.9380117 45.2268116,2.88343135 45.3484022,2.77426901 C45.4699928,2.66510667 45.5307872,2.50448449 45.5307872,2.29239766 L45.5307872,1.88070175 C45.5307872,1.66861492 45.4699928,1.50799275 45.3484022,1.39883041 C45.2268116,1.28966807 45.0600166,1.23508772 44.8480125,1.23508772 L43.3515199,1.23508772 L43.3515199,2.9380117 L44.8480125,2.9380117 Z M52.2556508,6.53099415 L51.7879969,4.97777778 L49.6087295,4.97777778 L49.1410756,6.53099415 L47.7007015,6.53099415 L49.8519096,0 L51.6102884,0 L53.7334373,6.53099415 L52.2556508,6.53099415 Z M50.7123928,1.29122807 L50.6656274,1.29122807 L49.9454404,3.77076023 L51.441933,3.77076023 L50.7123928,1.29122807 Z M54.6406859,0 L57.1005456,0 C57.5307894,0 57.9236147,0.0686152982 58.2790335,0.205847953 C58.6344523,0.343080608 58.9368655,0.547367064 59.1862822,0.81871345 C59.4356988,1.09005984 59.6289939,1.43001745 59.766173,1.83859649 C59.9033522,2.24717553 59.9719408,2.7228043 59.9719408,3.26549708 C59.9719408,3.80818985 59.9033522,4.28381862 59.766173,4.69239766 C59.6289939,5.1009767 59.4356988,5.44093432 59.1862822,5.7122807 C58.9368655,5.98362709 58.6344523,6.18791354 58.2790335,6.3251462 C57.9236147,6.46237885 57.5307894,6.53099415 57.1005456,6.53099415 L54.6406859,6.53099415 L54.6406859,0 Z M57.1005456,5.26783626 C57.524554,5.26783626 57.8581438,5.14931892 58.101325,4.9122807 C58.3445063,4.67524248 58.4660951,4.29473946 58.4660951,3.77076023 L58.4660951,2.76023392 C58.4660951,2.23625469 58.3445063,1.85575167 58.101325,1.61871345 C57.8581438,1.38167523 57.524554,1.26315789 57.1005456,1.26315789 L56.0623539,1.26315789 L56.0623539,5.26783626 L57.1005456,5.26783626 Z M61.1597818,6.53099415 L61.1597818,0 L65.6024942,0 L65.6024942,1.26315789 L62.5814497,1.26315789 L62.5814497,2.60116959 L65.1722525,2.60116959 L65.1722525,3.85497076 L62.5814497,3.85497076 L62.5814497,5.26783626 L65.6024942,5.26783626 L65.6024942,6.53099415 L61.1597818,6.53099415 Z M68.2587685,6.53099415 L66.8371005,6.53099415 L66.8371005,0 L69.9329696,0 C70.2322696,0 70.5035062,0.0499020351 70.7466875,0.149707602 C70.9898687,0.24951317 71.1971932,0.391422082 71.3686672,0.575438596 C71.5401412,0.759455111 71.6726418,0.979335953 71.766173,1.23508772 C71.8597043,1.49083949 71.9064692,1.77465731 71.9064692,2.08654971 C71.9064692,2.52943691 71.8082629,2.91617768 71.6118472,3.24678363 C71.4154316,3.57738957 71.1176949,3.81754311 70.7186282,3.96725146 L72,6.53099415 L70.4193297,6.53099415 L69.2782541,4.13567251 L68.2587685,4.13567251 L68.2587685,6.53099415 Z M69.7552611,2.9380117 C69.9672653,2.9380117 70.1340602,2.88343135 70.2556508,2.77426901 C70.3772414,2.66510667 70.4380359,2.50448449 70.4380359,2.29239766 L70.4380359,1.88070175 C70.4380359,1.66861492 70.3772414,1.50799275 70.2556508,1.39883041 C70.1340602,1.28966807 69.9672653,1.23508772 69.7552611,1.23508772 L68.2587685,1.23508772 L68.2587685,2.9380117 L69.7552611,2.9380117 Z M39.1893998,10.619883 L39.1893998,15.8877193 L37.7677319,15.8877193 L37.7677319,10.619883 L36,10.619883 L36,9.35672515 L40.9571317,9.35672515 L40.9571317,10.619883 L39.1893998,10.619883 Z M43.3515199,15.8877193 L41.9298519,15.8877193 L41.9298519,9.35672515 L45.025721,9.35672515 C45.325021,9.35672515 45.5962576,9.40662718 45.8394388,9.50643275 C46.0826201,9.60623832 46.2899446,9.74814723 46.4614186,9.93216374 C46.6328925,10.1161803 46.7653931,10.3360611 46.8589244,10.5918129 C46.9524557,10.8475646 46.9992206,11.1313825 46.9992206,11.4432749 C46.9992206,11.8861621 46.9010142,12.2729028 46.7045986,12.6035088 C46.508183,12.9341147 46.2104463,13.1742683 45.8113796,13.3239766 L47.0927514,15.8877193 L45.5120811,15.8877193 L44.3710055,13.4923977 L43.3515199,13.4923977 L43.3515199,15.8877193 Z M44.8480125,12.2947368 C45.0600166,12.2947368 45.2268116,12.2401565 45.3484022,12.1309942 C45.4699928,12.0218318 45.5307872,11.8612096 45.5307872,11.6491228 L45.5307872,11.2374269 C45.5307872,11.0253401 45.4699928,10.8647179 45.3484022,10.7555556 C45.2268116,10.6463932 45.0600166,10.5918129 44.8480125,10.5918129 L43.3515199,10.5918129 L43.3515199,12.2947368 L44.8480125,12.2947368 Z M48.233827,15.8877193 L48.233827,9.35672515 L52.6765394,9.35672515 L52.6765394,10.619883 L49.6554949,10.619883 L49.6554949,11.9578947 L52.2462977,11.9578947 L52.2462977,13.2116959 L49.6554949,13.2116959 L49.6554949,14.6245614 L52.6765394,14.6245614 L52.6765394,15.8877193 L48.233827,15.8877193 Z M55.9033515,12.8 L55.2766952,11.4900585 L55.248636,11.4900585 L55.248636,15.8877193 L53.9111458,15.8877193 L53.9111458,9.35672515 L55.4637568,9.35672515 L57.2501949,12.4444444 L57.8768511,13.754386 L57.9049104,13.754386 L57.9049104,9.35672515 L59.2424006,9.35672515 L59.2424006,15.8877193 L57.6897896,15.8877193 L55.9033515,12.8 Z M60.6827747,9.35672515 L63.1426345,9.35672515 C63.5728782,9.35672515 63.9657036,9.42534044 64.3211224,9.5625731 C64.6765411,9.69980575 64.9789543,9.90409221 65.228371,10.1754386 C65.4777877,10.446785 65.6710827,10.7867426 65.8082619,11.1953216 C65.9454411,11.6039007 66.0140296,12.0795295 66.0140296,12.6222222 C66.0140296,13.164915 65.9454411,13.6405438 65.8082619,14.0491228 C65.6710827,14.4577018 65.4777877,14.7976595 65.228371,15.0690058 C64.9789543,15.3403522 64.6765411,15.5446387 64.3211224,15.6818713 C63.9657036,15.819104 63.5728782,15.8877193 63.1426345,15.8877193 L60.6827747,15.8877193 L60.6827747,9.35672515 Z M63.1426345,14.6245614 C63.5666428,14.6245614 63.9002326,14.5060441 64.1434139,14.2690058 C64.3865951,14.0319676 64.5081839,13.6514646 64.5081839,13.1274854 L64.5081839,12.1169591 C64.5081839,11.5929798 64.3865951,11.2124768 64.1434139,10.9754386 C63.9002326,10.7384004 63.5666428,10.619883 63.1426345,10.619883 L62.1044427,10.619883 L62.1044427,14.6245614 L63.1426345,14.6245614 Z M69.3156664,16 C68.742008,16 68.2556528,15.9017554 67.8565861,15.7052632 C67.4575194,15.5087709 67.1176943,15.2545825 66.8371005,14.9426901 L67.7724084,13.9976608 C68.215123,14.4966887 68.7607138,14.7461988 69.4091972,14.7461988 C69.7583805,14.7461988 70.0171465,14.6744647 70.1855027,14.5309942 C70.353859,14.3875236 70.4380359,14.1972721 70.4380359,13.9602339 C70.4380359,13.7793363 70.3881533,13.6280708 70.2883866,13.5064327 C70.1886199,13.3847947 69.9859719,13.3021445 69.6804365,13.2584795 L69.035074,13.174269 C68.3429428,13.0869391 67.8363227,12.8779744 67.5151988,12.5473684 C67.1940748,12.2167625 67.0335152,11.7770008 67.0335152,11.2280702 C67.0335152,10.9348913 67.0896331,10.6666679 67.2018706,10.4233918 C67.3141081,10.1801157 67.4746677,9.97115097 67.6835542,9.79649123 C67.8924406,9.62183149 68.1480889,9.48616033 68.4505066,9.38947368 C68.7529243,9.29278704 69.097426,9.24444444 69.4840218,9.24444444 C69.9766198,9.24444444 70.4099747,9.32241637 70.7840998,9.47836257 C71.1582248,9.63430877 71.4793439,9.86198681 71.7474669,10.1614035 L70.8028059,11.1157895 C70.6469205,10.9348919 70.458302,10.7867452 70.2369447,10.671345 C70.0155874,10.5559448 69.7365566,10.4982456 69.3998441,10.4982456 C69.0818378,10.4982456 68.8448956,10.5543854 68.6890101,10.6666667 C68.5331247,10.7789479 68.4551832,10.9348918 68.4551832,11.1345029 C68.4551832,11.3590655 68.5159776,11.5212471 68.6375682,11.6210526 C68.7591588,11.7208582 68.9571304,11.7925924 69.2314887,11.8362573 L69.8768511,11.9391813 C70.5502762,12.0452247 71.049102,12.25263 71.3733437,12.5614035 C71.6975854,12.870177 71.8597038,13.3083792 71.8597038,13.8760234 C71.8597038,14.1879158 71.8035859,14.4748525 71.6913484,14.7368421 C71.5791109,14.9988317 71.4154337,15.2233909 71.2003118,15.4105263 C70.9851899,15.5976618 70.7186298,15.7426895 70.4006235,15.845614 C70.0826173,15.9485385 69.7209685,16 69.3156664,16 Z" id="TRADER-TRENDS"></path>
                </g>
            </g>
        </g>
    </g>
</svg>