<?xml version="1.0" encoding="UTF-8"?>
<svg width="52px" height="44px" viewBox="0 0 52 44" version="1.1" xmlns="http://www.w3.org/2000/svg" xmlns:xlink="http://www.w3.org/1999/xlink">
    <!-- Generator: Sketch 49.2 (51160) - http://www.bohemiancoding.com/sketch -->
    <title>Heart</title>
    <desc>Created with Sketch.</desc>
    <defs></defs>
    <g id="Page-1" stroke="none" stroke-width="1" fill="none" fill-rule="evenodd">
        <g id="FF-Bitcoin-RegFin" transform="translate(-694.000000, -192.000000)" fill="#000000">
            <path d="M702,196 L702,192 L714,192 L714,196 L718,196 L718,200 L722,200 L722,196 L726,196 L726,192 L738,192 L738,196 L742,196 L742,200 L746,200 L746,212 L742,212 L742,216 L738,216 L738,220 L734,220 L734,224 L730,224 L730,228 L726,228 L726,232 L722,232 L722,236 L718,236 L718,232 L714,232 L714,228 L710,228 L710,224 L706,224 L706,220 L702,220 L702,216 L698,216 L698,212 L694,212 L694,200 L698,200 L698,196 L702,196 Z M702,200 L702,208 L706,208 L706,204 L710,204 L710,200 L702,200 Z" id="Heart"></path>
        </g>
    </g>
</svg>