<?xml version="1.0" encoding="utf-8"?>
<!-- Generator: Adobe Illustrator 22.1.0, SVG Export Plug-In . SVG Version: 6.00 Build 0)  -->
<svg version="1.1" id="Layer_1" xmlns="http://www.w3.org/2000/svg" xmlns:xlink="http://www.w3.org/1999/xlink" x="0px" y="0px"
	 viewBox="0 0 24 24" style="enable-background:new 0 0 24 24;" xml:space="preserve">
<title>Telegram</title>
<desc>Created with Sketch.</desc>
<g id="Telegram">
	<path id="Shape" fill="#fff" d="M22.5,2.1L0.5,10.6c-0.7,0.3-0.7,1.3,0.1,1.5l5.6,1.6l2.1,6.6c0.2,0.7,1.1,0.9,1.6,0.4l2.9-2.9l5.7,4.2
		c0.7,0.5,1.7,0.1,1.9-0.7L24,3.4C24.2,2.5,23.3,1.8,22.5,2.1z M19.7,6.1l-10.2,9c-0.1,0.1-0.2,0.2-0.2,0.3l-0.4,3.5
		c0,0.1-0.2,0.1-0.2,0l-1.6-5.2c-0.1-0.2,0-0.5,0.2-0.6l12-7.5C19.7,5.5,20,5.8,19.7,6.1z"/>
</g>
</svg>